<svg xmlns="http://www.w3.org/2000/svg" xmlns:xlink="http://www.w3.org/1999/xlink" aria-hidden="true" role="img" class="iconify iconify--logos" width="31.88" height="32" preserveAspectRatio="xMidYMid meet" viewBox="0 0 256 257"><defs><linearGradient id="IconifyId1813088fe1fbc01fb466" x1="-.828%" x2="57.636%" y1="7.652%" y2="78.411%"><stop offset="0%" stop-color="#41D1FF"/><stop offset="100%" stop-color="#BD34FE"/></linearGradient><linearGradient id="IconifyId1813088fe1fbc01fb467" x1="43.376%" x2="50.316%" y1="2.242%" y2="89.03%"><stop offset="0%" stop-color="#FFEA83"/><stop offset="8.333%" stop-color="#FFDD35"/><stop offset="100%" stop-color="#FFA800"/></linearGradient></defs><path fill="url(#IconifyId1813088fe1fbc01fb466)" d="M255.153 63.974c-2.43-5.527-8.48-8.482-14.008-6.052L12.12 121.202c-5.527 2.43-8.482 8.48-6.052 14.008l21.42 48.902c2.43 5.527 8.48 8.482 14.007 6.052l217.025-95.278c5.527-2.43 8.482-8.48 6.052-14.008l-10.39-26.91z"/><path fill="url(#IconifyId1813088fe1fbc01fb467)" d="M185.43 2.183C180.222-.484 173.554.112 168.9 3.69l-148.56 116.82c-4.654 3.578-6.32 9.82-3.8 14.872l22.102 45.208c2.52 5.052 8.34 7.22 13.784 4.91l148.56-116.82c4.654-3.578 6.32-9.82 3.8-14.872L185.43 2.182z"/></svg>