<svg xmlns="http://www.w3.org/2000/svg" xmlns:xlink="http://www.w3.org/1999/xlink" aria-hidden="true" role="img" class="iconify iconify--logos" width="32" height="32" preserveAspectRatio="xMidYMid meet" viewBox="0 0 2500 2500"><path fill="#61dafb" d="M1250 2499.75c-22.35 0-43.88-8.91-59.6-24.63l-530.88-530.88c-32.99-32.99-32.99-86.21 0-119.2s86.21-32.99 119.2 0l471.28 471.28l471.29-471.29c32.99-32.99 86.21-32.99 119.19 0s32.99 86.21 0 119.2l-530.88 530.88c-15.72 15.72-37.25 24.63-59.6 24.63z"/><path fill="#61dafb" d="M1250 1416.5c-22.35 0-43.88-8.91-59.6-24.63L659.52 861c-32.99-32.99-32.99-86.21 0-119.2s86.21-32.99 119.2 0l471.28 471.28l471.29-471.29c32.99-32.99 86.21-32.99 119.19 0s32.99 86.21 0 119.2l-530.88 530.88c-15.72 15.72-37.25 24.63-59.6 24.63z"/><path fill="#61dafb" d="M1250 2499.75c-22.35 0-43.88-8.91-59.6-24.63L659.52 1944.24c-32.99-32.99-32.99-86.21 0-119.2s86.21-32.99 119.2 0l471.28 471.28l471.29-471.29c32.99-32.99 86.21-32.99 119.19 0s32.99 86.21 0 119.2l-530.88 530.88c-15.72 15.72-37.25 24.63-59.6 24.63z"/><path fill="#61dafb" d="M1250 1416.5c-22.35 0-43.88-8.91-59.6-24.63L659.52 861c-32.99-32.99-32.99-86.21 0-119.2s86.21-32.99 119.2 0l471.28 471.28l471.29-471.29c32.99-32.99 86.21-32.99 119.19 0s32.99 86.21 0 119.2l-530.88 530.88c-15.72 15.72-37.25 24.63-59.6 24.63z"/><path fill="#61dafb" d="M1250 2499.75c-22.35 0-43.88-8.91-59.6-24.63L659.52 1944.24c-32.99-32.99-32.99-86.21 0-119.2s86.21-32.99 119.2 0l471.28 471.28l471.29-471.29c32.99-32.99 86.21-32.99 119.19 0s32.99 86.21 0 119.2l-530.88 530.88c-15.72 15.72-37.25 24.63-59.6 24.63z"/><path fill="#61dafb" d="M1250 1416.5c-22.35 0-43.88-8.91-59.6-24.63L659.52 861c-32.99-32.99-32.99-86.21 0-119.2s86.21-32.99 119.2 0l471.28 471.28l471.29-471.29c32.99-32.99 86.21-32.99 119.19 0s32.99 86.21 0 119.2l-530.88 530.88c-15.72 15.72-37.25 24.63-59.6 24.63z"/><path fill="#61dafb" d="M1250 2499.75c-22.35 0-43.88-8.91-59.6-24.63L659.52 1944.24c-32.99-32.99-32.99-86.21 0-119.2s86.21-32.99 119.2 0l471.28 471.28l471.29-471.29c32.99-32.99 86.21-32.99 119.19 0s32.99 86.21 0 119.2l-530.88 530.88c-15.72 15.72-37.25 24.63-59.6 24.63z"/><path fill="#61dafb" d="M1250 1416.5c-22.35 0-43.88-8.91-59.6-24.63L659.52 861c-32.99-32.99-32.99-86.21 0-119.2s86.21-32.99 119.2 0l471.28 471.28l471.29-471.29c32.99-32.99 86.21-32.99 119.19 0s32.99 86.21 0 119.2l-530.88 530.88c-15.72 15.72-37.25 24.63-59.6 24.63z"/><path fill="#61dafb" d="M1250 2499.75c-22.35 0-43.88-8.91-59.6-24.63L659.52 1944.24c-32.99-32.99-32.99-86.21 0-119.2s86.21-32.99 119.2 0l471.28 471.28l471.29-471.29c32.99-32.99 86.21-32.99 119.19 0s32.99 86.21 0 119.2l-530.88 530.88c-15.72 15.72-37.25 24.63-59.6 24.63z"/><path fill="#61dafb" d="M1250 1416.5c-22.35 0-43.88-8.91-59.6-24.63L659.52 861c-32.99-32.99-32.99-86.21 0-119.2s86.21-32.99 119.2 0l471.28 471.28l471.29-471.29c32.99-32.99 86.21-32.99 119.19 0s32.99 86.21 0 119.2l-530.88 530.88c-15.72 15.72-37.25 24.63-59.6 24.63z"/><path fill="#61dafb" d="M1250 2499.75c-22.35 0-43.88-8.91-59.6-24.63L659.52 1944.24c-32.99-32.99-32.99-86.21 0-119.2s86.21-32.99 119.2 0l471.28 471.28l471.29-471.29c32.99-32.99 86.21-32.99 119.19 0s32.99 86.21 0 119.2l-530.88 530.88c-15.72 15.72-37.25 24.63-59.6 24.63z"/><path fill="#61dafb" d="M1250 1416.5c-22.35 0-43.88-8.91-59.6-24.63L659.52 861c-32.99-32.99-32.99-86.21 0-119.2s86.21-32.99 119.2 0l471.28 471.28l471.29-471.29c32.99-32.99 86.21-32.99 119.19 0s32.99 86.21 0 119.2l-530.88 530.88c-15.72 15.72-37.25 24.63-59.6 24.63z"/></svg>